HIERARCHY
ROOT root
{
	OFFSET 0.000000 0.000000 0.000000
	CHANNELS 6 Xposition Yposition Zposition Zrotation Yrotation Xrotation
	JOINT lhip
	{
		OFFSET 0.058581 -0.082280 -0.017664
		CHANNELS 3 Zrotation Yrotation Xrotation
		JOINT lknee
		{
			OFFSET 0.043451 -0.386469 0.008037
			CHANNELS 3 Zrotation Yrotation Xrotation
			JOINT lankle
			{
				OFFSET -0.014790 -0.426874 -0.037428
				CHANNELS 3 Zrotation Yrotation Xrotation
				JOINT ltoe
				{
					OFFSET 0.041054 -0.060286 0.122042
					CHANNELS 3 Zrotation Yrotation Xrotation
					End Site
					{
						OFFSET 0.000000 0.000000 0.000000
					}
				}
			}
		}
	}
	JOINT rhip
	{
		OFFSET -0.060310 -0.090513 -0.013543
		CHANNELS 3 Zrotation Yrotation Xrotation
		JOINT rknee
		{
			OFFSET -0.043257 -0.383688 -0.004843
			CHANNELS 3 Zrotation Yrotation Xrotation
			JOINT rankle
			{
				OFFSET 0.019056 -0.420046 -0.034562
				CHANNELS 3 Zrotation Yrotation Xrotation
				JOINT rtoe
				{
					OFFSET -0.034840 -0.062106 0.130323
					CHANNELS 3 Zrotation Yrotation Xrotation
					End Site
					{
						OFFSET 0.000000 0.000000 0.000000
					}
				}
			}
		}
	}
	JOINT lowerback
	{
		OFFSET 0.004439 0.124404 -0.038385
		CHANNELS 3 Zrotation Yrotation Xrotation
		JOINT upperback
		{
			OFFSET 0.004488 0.137956 0.026820
			CHANNELS 3 Zrotation Yrotation Xrotation
			JOINT chest
			{
				OFFSET -0.002265 0.056032 0.002855
				CHANNELS 3 Zrotation Yrotation Xrotation
				JOINT lowerneck
				{
					OFFSET -0.013390 0.211636 -0.033468
					CHANNELS 3 Zrotation Yrotation Xrotation
					JOINT upperneck
					{
						OFFSET 0.010113 0.088937 0.050410
						CHANNELS 3 Zrotation Yrotation Xrotation
						End Site
						{
							OFFSET 0.000000 0.000000 0.000000
						}
					}
				}
				JOINT lclavicle
				{
					OFFSET 0.071702 0.114000 -0.018898
					CHANNELS 3 Zrotation Yrotation Xrotation
					JOINT lshoulder
					{
						OFFSET 0.122921 0.045205 -0.019046
						CHANNELS 3 Zrotation Yrotation Xrotation
						JOINT lelbow
						{
							OFFSET 0.255332 -0.015649 -0.022946
							CHANNELS 3 Zrotation Yrotation Xrotation
							JOINT lwrist
							{
								OFFSET 0.265709 0.012698 -0.007375
								CHANNELS 3 Zrotation Yrotation Xrotation
								End Site
								{
									OFFSET 0.000000 0.000000 0.000000
								}
							}
						}
					}
				}
				JOINT rclavicle
				{
					OFFSET -0.082954 0.112472 -0.023707
					CHANNELS 3 Zrotation Yrotation Xrotation
					JOINT rshoulder
					{
						OFFSET -0.113228 0.046853 -0.008472
						CHANNELS 3 Zrotation Yrotation Xrotation
						JOINT relbow
						{
							OFFSET -0.260127 -0.014369 -0.031269
							CHANNELS 3 Zrotation Yrotation Xrotation
							JOINT rwrist
							{
								OFFSET -0.269108 0.006794 -0.006027
								CHANNELS 3 Zrotation Yrotation Xrotation
								End Site
								{
									OFFSET 0.000000 0.000000 0.000000
								}
							}
						}
					}
				}
			}
		}
	}
}
MOTION
Frames: 13
Frame Time: 0.033333
0.605372 0.173255 1.006998 93.232068 -3.157313 89.530281 0.672159 0.828535 1.618546 -3.393070 -7.284963 5.549688 1.874028 6.605216 -7.962433 0.000000 -0.000000 0.000000 -2.248025 -4.905608 -2.149785 0.570048 -5.237478 10.699811 2.459940 -10.632150 -8.366548 0.000000 -0.000000 0.000000 1.605586 -0.509847 9.118340 0.059060 -1.501978 -2.041505 -0.984447 -1.354158 2.281046 -0.406342 7.481618 -6.133978 -3.468214 2.991820 10.520045 -25.585672 4.997764 1.715687 -55.165057 -8.478020 11.463970 1.911131 -32.193315 15.536065 -6.220215 -4.369767 -6.502975 29.234946 -1.521568 1.441287 51.352895 6.298276 9.664535 -9.577318 6.798942 -10.633622 8.207366 0.685863 -5.938441 
0.610824 0.172914 1.006622 93.717352 -3.262457 89.828821 0.650688 0.787589 1.672070 -3.342565 -7.744824 5.402847 1.921242 6.402989 -7.998652 0.000000 -0.000000 0.000000 -2.324382 -5.254491 -1.668154 0.687631 -5.359371 9.998515 2.551156 -10.915487 -8.526674 0.000000 -0.000000 0.000000 1.715149 -0.754926 9.247212 0.138563 -1.684801 -2.627684 -0.906335 -1.609066 2.127203 -0.357002 7.529743 -5.745233 -3.547718 3.374262 11.001863 -25.590463 5.593404 1.597747 -55.193047 -8.393831 11.515365 1.061361 -32.310925 16.751152 -6.295859 -4.408716 -6.445901 28.784836 -2.761200 1.565922 51.529718 4.679295 9.823763 -8.671718 6.288100 -9.535804 8.264071 0.391321 -5.746569 
0.614732 0.172348 1.006212 94.272707 -3.354704 90.073096 0.779949 0.582823 1.521943 -3.544003 -8.000276 5.538176 1.841595 6.143220 -8.247221 0.000000 -0.000000 0.000000 -2.304455 -5.602510 -1.455383 0.644124 -5.522644 9.698084 2.608003 -11.123705 -8.726750 0.000000 -0.000000 0.000000 1.806460 -0.773290 9.049281 0.202720 -1.935502 -2.617365 -0.853323 -1.853758 2.296054 -0.430401 7.255384 -5.591147 -3.353905 3.659309 11.031054 -25.564259 5.704471 1.585306 -55.427629 -8.645335 11.511177 1.100117 -32.541819 16.781611 -6.048340 -4.401788 -6.567194 28.575499 -3.610668 1.614106 51.577320 3.231774 9.745377 -8.117835 5.614824 -8.716350 8.484412 0.336448 -5.680435 
0.618276 0.171809 1.006227 94.750709 -3.526592 90.398851 0.766809 0.446308 1.467996 -3.639033 -8.510384 5.258103 1.618237 6.106334 -8.196446 0.000000 -0.000000 0.000000 -2.344107 -5.735755 -1.414290 0.601701 -5.630366 9.418476 2.704600 -11.464067 -8.872524 0.000000 -0.000000 0.000000 1.889651 -0.911426 8.999190 0.213871 -2.059076 -2.783315 -0.878839 -2.054253 2.508082 -0.498017 7.270669 -5.809497 -3.062924 3.621507 10.921149 -25.698361 5.963433 1.717169 -55.238256 -8.854074 11.469884 1.019898 -33.197254 16.783981 -5.670152 -4.522178 -6.902774 28.316422 -4.556711 1.548334 51.475464 1.642802 9.890914 -7.418410 5.325013 -7.920448 8.663105 0.104007 -5.612745 
0.622077 0.171019 1.006086 94.718044 -3.640428 90.756375 0.782197 0.507745 1.652891 -3.638690 -8.755022 4.576715 1.630155 6.076802 -7.986456 0.000000 -0.000000 0.000000 -2.350370 -5.778034 -1.455719 0.629975 -5.475730 9.163415 2.590134 -11.673618 -9.035733 0.000000 -0.000000 0.000000 2.029141 -0.914675 8.785675 0.191182 -2.057874 -2.908536 -0.926017 -2.256678 2.623012 -0.445055 7.204057 -5.683276 -2.776152 3.825157 10.555648 -25.625977 6.508501 1.552578 -55.252943 -8.772836 11.404178 0.863981 -33.846150 17.037800 -5.667537 -4.507633 -7.345953 27.870265 -5.412253 1.815891 51.798826 0.203563 9.770075 -7.291994 4.867760 -7.691036 9.000481 -0.044647 -5.687622 
0.624073 0.170026 1.006363 94.952562 -3.761946 91.046410 0.805044 0.464740 1.377708 -3.641988 -9.048231 4.628349 1.571944 5.783444 -7.769030 0.000000 -0.000000 0.000000 -2.246268 -5.714894 -1.648215 0.497480 -5.540228 9.142791 2.597319 -12.060637 -9.270697 0.000000 -0.000000 0.000000 2.142201 -1.002541 9.469690 0.137213 -2.127916 -3.546690 -0.986599 -2.394423 2.575805 -0.280286 7.157998 -6.129731 -2.435377 3.933364 10.720624 -25.478554 7.144644 1.378874 -55.129549 -8.760323 11.300941 0.461601 -34.655039 17.674864 -5.423917 -4.510266 -7.502245 27.470542 -6.524767 1.608758 51.906805 -1.280472 9.734594 -6.891535 4.573287 -7.121035 9.159254 -0.067622 -5.658948 
0.627155 0.169230 1.006081 95.058884 -3.887494 91.219039 0.838432 0.439392 1.371272 -3.744250 -9.220546 4.592794 1.365245 5.634659 -7.764171 0.000000 -0.000000 0.000000 -2.312547 -6.013683 -1.502688 0.544741 -5.428892 8.920096 2.512064 -12.085252 -9.394660 0.000000 -0.000000 0.000000 2.181657 -1.070168 9.117648 0.142581 -2.347602 -3.174890 -0.942664 -2.484114 2.854866 -0.412835 7.029655 -6.095928 -2.211836 4.189503 10.231251 -25.335383 7.005192 1.538697 -55.079660 -8.788669 11.215887 0.547066 -34.899115 17.402017 -5.132676 -4.613930 -7.814141 26.929198 -7.007802 1.846349 52.076045 -2.577237 9.568461 -6.580181 4.480400 -6.690559 9.402241 -0.101081 -5.971994 
0.628081 0.168409 1.006468 94.909727 -3.977212 91.490924 0.840428 0.303724 1.085912 -3.844367 -9.201958 4.678196 1.167450 5.816841 -7.815303 0.000000 -0.000000 0.000000 -2.274425 -5.807455 -1.657309 0.533178 -5.272815 8.750687 2.476717 -12.458107 -9.370125 0.000000 -0.000000 0.000000 2.424781 -1.139001 9.240265 0.015640 -2.424132 -3.333652 -1.097082 -2.697171 3.006859 -0.356205 6.993693 -5.900464 -1.894522 4.569798 9.814888 -25.208400 7.237055 1.503850 -54.789758 -8.889772 11.091941 0.232929 -34.946407 17.769825 -4.977693 -4.638926 -8.178740 26.071927 -7.695411 1.826736 52.150226 -3.739675 9.631422 -5.459640 4.565770 -5.983039 9.543473 -0.185986 -6.372469 
0.630292 0.167393 1.006437 94.530789 -4.070569 91.646386 0.903767 0.556573 1.027746 -3.932831 -9.322238 4.818645 1.192082 5.679695 -7.785818 0.000000 -0.000000 0.000000 -2.298020 -5.968448 -1.715553 0.537489 -4.962603 8.757830 2.513054 -12.359874 -9.539825 0.000000 -0.000000 0.000000 2.441331 -1.195389 9.585479 -0.021010 -2.442673 -3.657635 -1.151188 -2.979373 2.881031 -0.282181 7.084894 -5.852750 -1.709836 4.760215 9.994503 -25.056738 7.637595 1.409017 -54.646518 -8.578076 10.860580 -0.020301 -35.007109 18.179180 -4.978684 -4.782750 -8.013803 25.614306 -8.428223 1.975003 52.131163 -4.761629 9.547926 -5.366918 4.439098 -5.674697 9.702322 -0.159716 -6.121634 
0.631749 0.166542 1.006411 94.156812 -4.064946 91.634900 0.993190 0.666317 1.194853 -3.953568 -9.306957 4.737808 1.056250 5.858683 -7.872538 0.000000 -0.000000 0.000000 -2.240725 -6.023027 -1.600541 0.528133 -4.848065 8.717389 2.532073 -12.155478 -9.635503 0.000000 -0.000000 0.000000 2.422027 -1.250122 9.623834 -0.063592 -2.536657 -3.342875 -1.125790 -2.836057 2.943473 -0.268620 6.754729 -5.604202 -1.393254 4.763691 9.863541 -25.013231 7.499395 1.320018 -54.412628 -8.643207 10.737976 -0.162427 -34.706403 18.330296 -5.026213 -4.697090 -7.845930 25.177695 -9.223968 1.454888 51.972695 -5.731395 9.185682 -5.085853 4.338214 -5.153725 10.064456 -0.208398 -6.167031 
0.632113 0.165625 1.006159 93.545101 -4.075323 91.651024 1.033593 0.412939 1.224001 -4.060285 -8.971290 4.820166 0.984376 6.337520 -7.797099 0.000000 -0.000000 0.000000 -2.303914 -5.823090 -1.788860 0.675684 -4.548152 8.984549 2.546494 -12.151265 -9.583877 0.000000 -0.000000 0.000000 2.421307 -1.275364 9.031450 -0.108998 -2.674138 -2.702470 -1.314244 -2.883776 3.593437 -0.131652 6.762523 -5.441590 -1.145616 5.076470 9.530502 -25.080231 7.305703 1.429835 -54.125431 -9.020034 10.641226 0.313863 -34.430261 17.449799 -4.871278 -4.516950 -7.837065 24.821763 -9.237844 1.619827 52.124139 -5.840864 9.156654 -5.203386 4.115125 -5.111930 10.232147 -0.420288 -6.311807 
0.634250 0.164548 1.005972 92.810249 -4.032028 91.794043 1.121465 0.608686 1.531158 -4.044152 -8.854581 4.420205 1.023642 6.635901 -7.744965 0.000000 -0.000000 0.000000 -2.274519 -5.802289 -1.694678 0.835413 -4.087989 8.701902 2.481192 -12.024528 -9.584898 0.000000 -0.000000 0.000000 2.378731 -1.477724 9.144580 -0.154136 -2.728267 -3.082144 -1.373620 -3.279451 3.434433 0.173004 7.131817 -4.893517 -1.218568 5.472494 9.851085 -24.849554 7.932653 1.086828 -54.168491 -8.436140 10.495679 0.120646 -33.923547 17.459795 -4.881165 -4.617457 -7.938078 24.259447 -9.544618 2.197778 51.672197 -6.321145 9.453398 -4.758246 4.495536 -4.922867 10.290386 -0.705649 -6.340043 
0.634116 0.163445 1.005940 92.233794 -3.920616 91.826891 1.203409 0.873410 1.421521 -3.939536 -8.648851 4.659265 1.062975 6.768105 -7.816384 0.000000 -0.000000 0.000000 -2.108362 -5.728527 -1.822580 0.841058 -3.886373 8.787090 2.562902 -11.827962 -9.646143 0.000000 -0.000000 0.000000 2.464868 -1.698123 9.423276 -0.257399 -2.858710 -3.416312 -1.480529 -3.327941 3.343466 0.357833 7.127325 -4.406648 -1.059681 5.853831 10.221666 -24.751198 8.088537 1.137814 -54.078751 -8.277923 10.290726 0.196833 -33.510562 17.507690 -4.952098 -4.620452 -7.758538 23.730616 -9.784136 2.204230 51.381032 -6.677011 9.361959 -4.117860 4.232604 -4.663294 10.315079 -0.401414 -6.306125 
